<svg width="16" height="16" viewBox="0 0 16 16" fill="none" xmlns="http://www.w3.org/2000/svg">
<path fill-rule="evenodd" clip-rule="evenodd" d="M7.38606 0.544022C7.74717 0.263158 8.25283 0.263158 8.61394 0.544022L14.6139 5.21069C14.8575 5.40014 15 5.69145 15 6.00004V13.3334C15 13.9522 14.7542 14.5457 14.3166 14.9833C13.879 15.4209 13.2855 15.6667 12.6667 15.6667H10C9.44772 15.6667 9 15.219 9 14.6667V9.00004H7V14.6667C7 15.219 6.55228 15.6667 6 15.6667H3.33333C2.7145 15.6667 2.121 15.4209 1.68342 14.9833C1.24583 14.5457 1 13.9522 1 13.3334V6.00004C1 5.69145 1.14247 5.40014 1.38606 5.21069L7.38606 0.544022ZM3 6.48912V13.3334C3 13.4218 3.03512 13.5066 3.09763 13.5691C3.16014 13.6316 3.24493 13.6667 3.33333 13.6667H5V8.00004C5 7.44776 5.44772 7.00004 6 7.00004H10C10.5523 7.00004 11 7.44776 11 8.00004V13.6667H12.6667C12.7551 13.6667 12.8399 13.6316 12.9024 13.5691C12.9649 13.5066 13 13.4218 13 13.3334V6.48912L8 2.60024L3 6.48912Z" fill="#28443F"/>
</svg>
