<svg width="23" height="23" viewBox="0 0 23 23" fill="none" xmlns="http://www.w3.org/2000/svg">
<path fill-rule="evenodd" clip-rule="evenodd" d="M-1.00536e-06 11.5C-1.56061e-06 5.14873 5.14872 1.56061e-06 11.5 1.00536e-06C17.8513 4.50116e-07 23 5.14873 23 11.5C23 17.8513 17.8513 23 11.5 23C5.14873 23 -4.50116e-07 17.8513 -1.00536e-06 11.5ZM10.1125 18L10.3562 9.01157L12.6437 9.01157L12.8937 18L10.1125 18ZM12.5624 5.43877C12.2666 5.14625 11.9124 5 11.5 5C11.2333 5 10.9875 5.06686 10.7625 5.20058C10.5375 5.33848 10.3562 5.52025 10.2187 5.7459C10.0771 5.97573 10.0042 6.22855 10 6.50434C10.0042 6.91386 10.1562 7.26487 10.4562 7.55738C10.7562 7.84989 11.1041 7.99614 11.5 7.99614C11.9124 7.99614 12.2666 7.84989 12.5624 7.55738C12.8582 7.26487 13.0041 6.91386 12.9999 6.50434C13.0041 6.09065 12.8582 5.73546 12.5624 5.43877Z" fill="#304428"/>
</svg>
